<?xml version="1.0" encoding="iso-8859-1"?>
<!-- Generator: Adobe Illustrator 19.0.0, SVG Export Plug-In . SVG Version: 6.00 Build 0)  -->
<svg version="1.1" id="Layer_1" xmlns="http://www.w3.org/2000/svg" xmlns:xlink="http://www.w3.org/1999/xlink" x="0px" y="0px"
	 viewBox="0 0 512 512" style="enable-background:new 0 0 512 512;" xml:space="preserve">
<path style="fill:#90C8EC;" d="M65.543,206.861c0,90.957,63.765,167.01,149.028,185.925v-0.159c0-22.881,18.548-41.431,41.43-41.431
	s41.43,18.548,41.43,41.431v0.159c85.264-18.916,149.029-94.969,149.029-185.925L65.543,206.861L65.543,206.861z"/>
<path style="fill:#578CAD;" d="M256,351.2c-22.881,0-41.43,18.548-41.43,41.431v85.445h82.858V392.63
	C297.43,369.748,278.881,351.2,256,351.2z"/>
<g style="opacity:0.55;">
	<path style="fill:#F5F5F5;" d="M357.93,330.62c-2.32,0-4.628-0.957-6.285-2.832c-3.068-3.47-2.74-8.768,0.729-11.835
		c21.009-18.569,36.124-42.557,43.712-69.37c1.262-4.456,5.897-7.043,10.351-5.784c4.456,1.262,7.046,5.895,5.785,10.351
		c-8.465,29.912-25.32,56.665-48.743,77.368C361.886,329.928,359.902,330.62,357.93,330.62z"/>
</g>
<g style="opacity:0.55;">
	<path style="fill:#F5F5F5;" d="M335.119,347.336c-2.848,0-5.625-1.452-7.197-4.073c-2.382-3.971-1.094-9.121,2.876-11.503
		c0.848-0.509,1.69-1.025,2.526-1.551c3.922-2.463,9.096-1.279,11.559,2.643c2.462,3.922,1.279,9.098-2.644,11.559
		c-0.932,0.585-1.87,1.161-2.815,1.728C338.074,346.95,336.587,347.336,335.119,347.336z"/>
</g>
<circle style="fill:#90C8EC;" cx="256" cy="393.335" r="13.884"/>
<g>
	<path style="fill:#3A5D74;" d="M256,190.457c-4.63,0-8.384-4.005-8.384-8.945V53.891c0-4.94,3.754-8.945,8.384-8.945
		c4.63,0,8.384,4.005,8.384,8.945v127.621C264.384,186.453,260.63,190.457,256,190.457z"/>
	<path style="fill:#3A5D74;" d="M117.351,190.457c-2.354,0-4.694-1.051-6.353-3.102c-3.024-3.741-2.634-9.39,0.872-12.618
		L250.523,47.116c3.507-3.226,8.801-2.81,11.825,0.931c3.025,3.741,2.634,9.39-0.871,12.618L122.824,188.286
		C121.239,189.743,119.29,190.457,117.351,190.457z"/>
	<path style="fill:#3A5D74;" d="M394.649,190.457c-1.94,0-3.889-0.714-5.474-2.171L250.523,60.665
		c-3.506-3.227-3.897-8.877-0.872-12.618c3.025-3.741,8.318-4.159,11.825-0.931l138.653,127.621
		c3.506,3.227,3.896,8.876,0.871,12.618C399.343,189.406,397.003,190.457,394.649,190.457z"/>
</g>
<circle style="fill:#90C8EC;" cx="256" cy="26.664" r="26.664"/>
<g style="opacity:0.1;">
	<path style="fill:#231F20;" d="M83.429,206.861H65.543c0,90.957,63.765,167.01,149.028,185.925v-0.159
		c0-1.578,0.096-3.132,0.268-4.665C138.562,363.111,83.429,291.434,83.429,206.861z"/>
</g>
<g>
	<path style="opacity:0.1;fill:#231F20;enable-background:new    ;" d="M264.943,352.178c-2.881-0.634-5.871-0.979-8.943-0.979
		c-22.881,0-41.43,18.548-41.43,41.431v85.445h17.886v-85.445C232.457,372.82,246.364,356.268,264.943,352.178z"/>
	<path style="opacity:0.1;fill:#231F20;enable-background:new    ;" d="M247.222,26.664c0-11.589,7.395-21.446,17.721-25.123
		C262.147,0.547,259.138,0,256,0c-14.726,0-26.664,11.938-26.664,26.664S241.274,53.328,256,53.328c3.138,0,6.147-0.547,8.943-1.542
		C254.617,48.11,247.222,38.252,247.222,26.664z"/>
</g>
<path style="fill:#578CAD;" d="M157.657,207.979H54.114c-9.677,0-17.522-7.844-17.522-17.522l0,0
	c0-9.677,7.844-17.522,17.522-17.522h403.77c9.677,0,17.523,7.845,17.523,17.522l0,0c0,9.678-7.847,17.522-17.523,17.522H157.657"/>
<path style="opacity:0.1;fill:#231F20;enable-background:new    ;" d="M54.479,190.457c0-9.677,7.844-17.522,17.522-17.522H54.114
	c-9.677,0-17.522,7.845-17.522,17.522c0,9.678,7.844,17.522,17.522,17.522h17.886C62.324,207.979,54.479,200.135,54.479,190.457z"/>
<path style="fill:#427C99;" d="M352.371,494.478c0-9.678-7.845-17.522-17.522-17.522H177.151c-9.678,0-17.522,7.844-17.522,17.522
	S167.474,512,177.151,512h157.698C344.526,512,352.371,504.156,352.371,494.478z"/>
<path style="opacity:0.1;fill:#231F20;enable-background:new    ;" d="M177.514,494.478c0-9.678,7.845-17.522,17.522-17.522H177.15
	c-9.678,0-17.522,7.844-17.522,17.522S167.473,512,177.15,512h17.886C185.36,512,177.514,504.156,177.514,494.478z"/>
<g>
</g>
<g>
</g>
<g>
</g>
<g>
</g>
<g>
</g>
<g>
</g>
<g>
</g>
<g>
</g>
<g>
</g>
<g>
</g>
<g>
</g>
<g>
</g>
<g>
</g>
<g>
</g>
<g>
</g>
</svg>
